<?xml version="1.0" standalone="no"?>
<!DOCTYPE svg PUBLIC "-//W3C//DTD SVG 20010904//EN"
 "http://www.w3.org/TR/2001/REC-SVG-20010904/DTD/svg10.dtd">
<svg version="1.0" xmlns="http://www.w3.org/2000/svg"
 width="600.000000pt" height="484.000000pt" viewBox="0 0 600.000000 484.000000"
 preserveAspectRatio="xMidYMid meet">
<g transform="translate(0.000000,484.000000) scale(0.050000,-0.050000)"
fill="#000000" stroke="none">
<path d="M752 9110 c199 -886 908 -1751 1852 -2261 113 -61 188 -107 166 -102
-770 186 -1531 566 -2193 1097 -263 211 -272 197 -97 -155 298 -601 814 -894
1902 -1078 1319 -223 1437 -253 958 -241 -793 19 -1783 155 -2618 360 -341 84
-338 85 -178 -59 469 -422 890 -578 1616 -600 654 -20 1010 -34 1016 -40 9 -9
-400 -69 -636 -93 -291 -30 -1042 -26 -1325 7 -277 32 -275 35 -91 -134 412
-382 989 -461 1825 -250 248 62 278 62 138 -1 -322 -145 -735 -266 -1127 -329
l-270 -43 116 -75 c340 -221 714 -218 1244 8 161 68 412 149 580 187 97 22
-788 -442 -933 -489 -110 -35 -170 -42 -346 -36 l-213 7 56 -45 c327 -265 791
-269 1313 -12 174 85 184 84 62 -4 -148 -106 -497 -275 -684 -330 -194 -58
-197 -63 -62 -106 247 -80 425 -57 900 115 135 49 249 86 253 83 37 -37 -455
-303 -725 -393 l-220 -73 81 -41 c271 -138 510 -95 841 152 86 64 193 138 236
165 l80 48 -68 -85 c-94 -117 -371 -344 -543 -447 -132 -78 -139 -86 -96 -102
205 -76 439 14 687 263 88 88 163 156 167 152 24 -23 -348 -487 -461 -575 -84
-66 -67 -80 65 -55 134 25 270 112 400 254 55 60 100 104 100 97 0 -33 -106
-215 -179 -307 l-82 -104 67 0 c37 0 111 13 165 29 53 16 100 26 104 22 11
-11 -85 -192 -144 -271 l-52 -69 50 -14 c84 -22 297 15 409 72 128 65 122 69
99 -77 -72 -456 -370 -858 -791 -1068 l-204 -101 94 -37 c221 -85 432 -29 649
172 80 73 118 98 111 72 -94 -333 -175 -650 -167 -650 3 0 40 58 82 130 67
114 344 442 360 426 3 -4 -12 -69 -35 -146 -31 -106 -43 -219 -50 -460 -11
-349 0 -370 74 -140 46 143 195 452 252 521 31 38 31 38 18 -1 -99 -292 33
-766 281 -1011 l111 -109 -53 140 c-66 172 -87 433 -49 610 34 162 45 153 86
-75 34 -184 128 -496 205 -675 l34 -80 39 90 c74 169 158 450 201 669 l44 220
24 -84 c63 -217 49 -490 -35 -683 -51 -117 -33 -127 62 -31 232 235 357 647
292 969 -33 163 152 -171 259 -470 l65 -180 15 99 c21 143 -3 457 -50 639 -23
87 -41 162 -41 166 0 60 287 -270 385 -442 55 -98 57 -99 44 -32 -13 74 -143
562 -164 616 -7 18 37 -17 97 -77 217 -216 472 -288 688 -192 l80 35 -160 76
c-387 183 -671 503 -788 887 -48 158 -76 344 -50 332 233 -111 365 -144 488
-125 l77 13 -66 92 c-72 101 -131 210 -131 240 0 11 44 8 105 -9 58 -15 136
-28 174 -28 l69 0 -63 65 c-61 64 -205 287 -205 319 0 9 54 -38 119 -103 134
-134 232 -191 382 -223 139 -30 138 -26 -28 143 -135 139 -253 286 -344 429
-23 35 34 -7 137 -103 248 -230 451 -317 629 -268 74 20 119 61 66 61 -42 0
-386 249 -529 382 -248 232 -176 225 140 -13 325 -245 525 -281 822 -149 l96
43 -200 65 c-226 74 -435 175 -634 306 -172 113 -187 138 -52 84 538 -218 833
-269 1081 -190 146 47 144 55 -18 97 -189 50 -461 176 -658 304 -190 124 -223
161 -64 73 490 -272 951 -291 1320 -54 123 79 120 86 -30 71 -227 -23 -379 10
-645 141 -318 156 -751 385 -744 393 17 17 410 -107 616 -194 495 -209 868
-221 1191 -37 173 98 171 110 -18 136 -435 61 -1008 227 -1265 368 -81 44 -64
42 153 -15 864 -229 1472 -144 1896 264 134 129 130 141 -34 122 -510 -62
-1161 -57 -1678 13 -423 58 -425 62 -37 76 1019 38 1197 50 1350 94 318 91
692 301 927 520 160 150 161 148 -28 99 -502 -132 -1413 -287 -2049 -349 -309
-30 -1081 -60 -1040 -41 22 11 775 150 1408 260 1059 185 1614 552 1872 1239
66 176 58 180 -94 48 -549 -475 -1283 -873 -2017 -1095 -347 -104 -352 -102
-89 35 859 449 1486 1172 1781 2052 86 258 82 278 -18 92 -204 -377 -490 -745
-795 -1021 -492 -445 -687 -567 -1828 -1145 -527 -267 -656 -394 -913 -904
-364 -720 -458 -823 -893 -978 -189 -67 -214 -66 -296 16 -156 156 -15 273
200 164 l94 -48 -13 63 c-22 105 -77 181 -160 221 -43 21 -101 50 -129 64
-221 119 -329 135 -500 76 -221 -76 -464 -280 -561 -470 -49 -95 -54 -95 -235
-9 -274 132 -382 268 -682 865 -307 609 -355 651 -1272 1115 -1254 635 -1805
1118 -2283 1999 -50 93 -82 136 -75 102z"/>
</g>
</svg>
