<?xml version="1.0" standalone="no"?>
<!DOCTYPE svg PUBLIC "-//W3C//DTD SVG 20010904//EN"
 "http://www.w3.org/TR/2001/REC-SVG-20010904/DTD/svg10.dtd">
<svg version="1.0" xmlns="http://www.w3.org/2000/svg"
 width="600.000000pt" height="375.000000pt" viewBox="0 0 600.000000 375.000000"
 preserveAspectRatio="xMidYMid meet">
<g transform="translate(0.000000,375.000000) scale(0.100000,-0.100000)"
fill="#000000" stroke="none">
<path d="M2189 3160 c45 -118 137 -229 241 -288 69 -40 50 -41 -43 -3 -85 33
-165 80 -224 127 -23 19 -44 34 -47 34 -14 0 20 -64 54 -103 55 -62 130 -93
302 -122 162 -29 178 -33 125 -34 -84 -2 -281 27 -447 65 -22 5 -21 2 14 -30
57 -52 122 -73 261 -82 117 -7 118 -8 65 -17 -30 -5 -106 -6 -168 -4 -111 5
-113 5 -97 -14 10 -10 38 -28 62 -40 39 -19 56 -21 131 -16 48 3 98 9 112 12
16 4 12 0 -10 -10 -19 -9 -71 -25 -115 -34 l-80 -18 32 -16 c47 -25 101 -21
195 14 95 35 93 27 -5 -25 -42 -22 -83 -36 -105 -36 -33 -1 -35 -2 -19 -14 33
-25 82 -28 141 -8 31 10 56 17 56 16 0 -7 -100 -54 -115 -54 -9 0 -13 -4 -10
-10 10 -16 81 -11 137 10 28 11 53 18 55 16 6 -6 -64 -44 -108 -59 -43 -15
-43 -20 2 -30 25 -6 55 5 124 47 l30 18 -30 -28 c-17 -16 -44 -39 -60 -51 -29
-21 -29 -22 -7 -23 28 0 58 15 90 43 34 32 26 12 -14 -33 -43 -47 -24 -55 28
-12 l33 27 -18 -27 c-23 -36 -22 -40 10 -32 l27 7 -18 -27 c-22 -35 -14 -43
27 -28 46 17 47 16 35 -25 -15 -57 -56 -111 -106 -140 -41 -24 -43 -27 -23
-34 24 -9 66 4 95 29 18 16 19 16 13 -1 -4 -11 -10 -31 -13 -45 -6 -26 -5 -26
24 8 l30 35 -4 -70 -5 -70 18 42 c25 58 33 62 33 19 0 -39 22 -97 44 -115 9
-8 11 6 9 57 l-3 67 21 -72 c12 -40 25 -73 29 -73 9 0 39 95 41 127 0 10 4 6
10 -12 5 -18 5 -44 -1 -64 -5 -19 -8 -37 -6 -39 11 -10 49 67 56 111 l7 52 15
-35 c9 -19 18 -42 22 -50 3 -8 4 17 2 55 l-4 70 29 -35 c31 -37 34 -34 19 19
-9 31 -8 32 8 18 27 -24 70 -37 93 -28 20 7 18 10 -23 34 -53 31 -96 90 -105
142 -6 35 -4 38 13 30 10 -4 30 -10 43 -13 20 -4 23 -2 18 12 -4 9 -10 23 -13
32 -5 12 -1 14 22 8 28 -7 28 -6 13 12 -32 38 -32 48 0 22 18 -16 40 -28 49
-28 12 0 10 6 -9 28 -14 15 -31 36 -39 47 -13 19 -13 18 10 -1 35 -30 65 -44
92 -44 l23 1 -22 17 c-11 9 -38 30 -58 45 -51 40 -37 45 18 7 30 -22 56 -32
80 -32 57 0 65 13 16 30 -36 12 -124 62 -109 62 3 0 29 -9 58 -20 56 -21 127
-26 137 -10 3 6 -1 10 -10 10 -15 0 -115 47 -115 54 0 1 25 -6 56 -16 59 -20
96 -18 144 8 25 13 25 13 -13 14 -33 0 -197 71 -197 85 0 2 36 -9 81 -25 91
-34 145 -38 192 -13 l32 16 -80 18 c-44 9 -96 25 -115 34 -22 10 -26 14 -10
10 14 -3 64 -9 112 -12 75 -5 92 -3 131 16 24 12 52 30 62 41 18 20 17 20 -71
14 -50 -4 -126 -3 -170 2 l-79 8 136 11 c117 11 143 16 187 40 28 15 61 39 74
53 l23 25 -25 -7 c-114 -31 -406 -72 -460 -64 -14 1 44 15 128 30 182 32 256
62 312 125 34 39 68 103 54 103 -3 0 -24 -15 -47 -33 -63 -51 -157 -104 -231
-132 -90 -34 -102 -31 -36 7 67 38 157 126 194 191 27 45 70 147 62 147 -2 0
-22 -29 -45 -64 -69 -107 -159 -182 -321 -265 -154 -81 -165 -91 -224 -207
-36 -74 -62 -102 -117 -124 -34 -15 -64 -5 -64 21 0 9 10 13 30 11 l30 -2 -28
25 c-56 50 -111 45 -169 -16 -36 -38 -39 -39 -65 -25 -40 20 -57 42 -97 122
-19 39 -49 86 -66 103 -18 17 -90 61 -160 97 -148 75 -254 164 -315 265 -20
32 -38 59 -41 59 -2 0 5 -22 15 -50z"/>
<path d="M1652 1583 l3 -148 28 -3 c27 -3 27 -2 27 52 l0 55 58 3 c53 3 57 5
57 28 0 23 -4 25 -57 28 l-58 3 0 34 0 35 76 0 75 0 -3 28 -3 27 -103 3 -103
3 3 -148z"/>
<path d="M2032 1711 c-126 -80 -75 -281 72 -281 77 0 156 75 156 150 0 35 -36
102 -67 124 -40 29 -120 32 -161 7z m133 -63 c15 -14 28 -38 32 -60 5 -32 1
-41 -25 -68 -62 -61 -152 -26 -152 60 0 80 85 120 145 68z"/>
<path d="M2377 1724 c-11 -11 -8 -164 3 -205 15 -52 50 -81 108 -87 41 -4 52
0 80 23 41 35 54 81 50 185 -3 84 -3 85 -30 88 l-26 3 -4 -106 c-3 -98 -5
-108 -27 -126 -15 -13 -31 -17 -45 -13 -43 13 -48 27 -50 135 -1 103 -1 104
-26 107 -14 2 -29 0 -33 -4z"/>
<path d="M2750 1579 l0 -150 28 3 c27 3 27 3 32 96 l5 93 65 -93 c52 -75 71
-94 93 -96 l28 -3 -3 148 -3 148 -25 0 c-24 0 -25 -2 -30 -90 l-5 -89 -63 92
c-56 81 -67 92 -93 92 l-29 0 0 -151z"/>
<path d="M3134 1717 c-2 -7 -3 -74 -2 -148 l3 -134 71 1 c84 0 133 25 159 81
38 79 -9 179 -95 203 -51 14 -130 13 -136 -3z m155 -73 c67 -56 23 -154 -69
-154 l-30 0 0 90 0 90 34 0 c22 0 45 -9 65 -26z"/>
<path d="M3500 1580 l0 -150 105 0 105 0 0 30 0 30 -75 0 -75 0 0 35 0 35 55
0 c52 0 55 1 55 25 0 24 -3 25 -55 25 -54 0 -55 0 -55 30 l0 29 73 3 c69 3 72
4 72 28 0 25 -1 25 -102 28 l-103 3 0 -151z"/>
<path d="M3822 1584 l3 -149 28 -3 c26 -3 27 -2 27 47 0 50 1 51 30 51 26 0
33 -7 55 -50 22 -43 29 -50 55 -50 36 0 37 7 6 69 l-25 48 22 21 c32 33 30 94
-6 130 -25 24 -35 27 -112 31 l-86 3 3 -148z m158 66 c19 -36 -3 -60 -55 -60
l-45 0 0 40 0 40 45 0 c34 0 47 -5 55 -20z"/>
<path d="M4184 1707 c-53 -46 -23 -125 54 -143 15 -4 37 -13 50 -21 18 -11 20
-17 12 -33 -13 -25 -61 -27 -95 -4 -20 13 -28 14 -40 4 -8 -7 -15 -19 -15 -26
0 -19 73 -54 112 -54 44 0 96 33 104 66 15 57 -14 88 -113 125 -21 7 -33 18
-33 30 0 27 43 35 79 13 25 -15 32 -15 45 -5 23 19 20 29 -16 51 -46 28 -109
26 -144 -3z"/>
<path d="M735 1250 c-3 -6 2 -13 12 -16 58 -18 60 -27 62 -232 1 -178 8 -199
80 -234 63 -30 191 -32 240 -3 76 45 90 91 91 296 0 141 6 164 44 171 11 1 21
8 23 15 3 9 -20 12 -87 12 -64 -1 -90 -4 -87 -12 2 -7 13 -13 25 -15 44 -7 52
-36 52 -192 0 -166 -15 -216 -69 -244 -36 -19 -126 -21 -161 -3 -51 25 -60 65
-58 252 l3 170 33 10 c17 5 32 15 32 21 0 16 -226 19 -235 4z"/>
<path d="M1305 1250 c-3 -4 12 -17 32 -27 l38 -18 3 -197 c2 -168 0 -198 -14
-212 -8 -9 -24 -16 -35 -16 -10 0 -19 -7 -19 -15 0 -12 16 -15 85 -15 69 0 85
3 85 15 0 8 -9 15 -20 15 -43 0 -51 35 -48 210 l3 162 165 -205 c98 -122 172
-206 183 -206 16 -1 17 16 17 217 0 119 3 227 6 239 4 12 19 26 37 32 46 16
25 25 -63 27 -61 1 -80 -2 -80 -13 0 -7 8 -13 18 -13 11 0 26 -8 36 -19 14
-16 16 -40 14 -175 l-3 -156 -150 189 -149 190 -68 0 c-37 0 -70 -4 -73 -9z"/>
<path d="M1884 1248 c-5 -8 4 -13 38 -22 24 -5 27 -12 34 -63 9 -75 -4 -353
-17 -369 -6 -7 -20 -14 -32 -16 -12 -2 -21 -7 -20 -13 2 -6 52 -11 118 -13 98
-2 115 0 115 13 0 9 -9 15 -23 15 -44 0 -47 12 -47 226 0 162 3 204 14 213 20
17 95 16 112 -1 8 -8 56 -117 107 -243 63 -157 97 -231 109 -233 13 -2 35 44
104 220 48 123 97 234 110 247 17 18 33 25 59 24 65 -2 65 -3 65 -227 0 -214
-3 -226 -47 -226 -14 0 -23 -6 -23 -15 0 -13 30 -15 209 -15 237 0 221 -6 221
88 0 52 -15 54 -36 3 -18 -47 -47 -61 -122 -61 -92 0 -102 12 -102 126 l0 94
35 0 c39 0 75 -28 75 -60 0 -11 5 -20 10 -20 6 0 10 40 10 100 0 60 -4 100
-10 100 -5 0 -10 -8 -10 -19 0 -35 -38 -71 -76 -71 l-34 0 0 100 0 100 63 0
c75 0 107 -15 126 -58 21 -47 31 -39 31 26 l0 57 -280 0 c-209 0 -280 -3 -280
-12 0 -6 10 -13 23 -15 19 -3 22 -9 21 -48 -1 -40 -38 -153 -92 -281 l-18 -41
-62 166 c-35 92 -62 174 -60 183 2 9 13 20 26 23 13 3 22 9 20 14 -3 11 -458
15 -464 4z"/>
<path d="M3120 1243 c0 -7 10 -13 23 -13 44 0 47 -12 47 -225 0 -213 -3 -225
-47 -225 -14 0 -23 -6 -23 -15 0 -12 19 -15 115 -15 96 0 115 3 115 15 0 9 -9
15 -25 15 -35 0 -45 27 -45 119 0 117 10 113 144 -61 l67 -87 69 0 c51 0 70 4
70 14 0 7 -11 16 -25 19 -20 5 -195 192 -195 209 0 3 12 8 28 12 77 17 116
109 77 184 -24 48 -63 58 -237 63 -128 4 -158 2 -158 -9z m277 -37 c25 -22 28
-31 28 -86 0 -55 -3 -64 -28 -86 -21 -18 -40 -24 -73 -24 l-44 0 0 103 c0 57
3 107 7 110 16 17 83 6 110 -17z"/>
<path d="M3733 1245 c-39 -17 -63 -52 -70 -103 -9 -70 31 -119 146 -177 106
-53 129 -108 71 -167 -28 -28 -35 -30 -81 -26 -60 6 -102 41 -122 102 -8 23
-18 41 -23 41 -5 0 -10 -35 -12 -77 -2 -51 1 -78 8 -78 6 0 13 7 16 15 5 12
12 11 47 -7 29 -15 60 -21 102 -21 110 -1 175 52 175 141 0 77 -37 121 -150
177 -76 38 -100 62 -100 101 0 46 41 78 93 71 48 -7 74 -29 98 -85 10 -24 22
-41 27 -38 4 2 9 34 9 70 1 49 -2 66 -12 66 -7 0 -15 -5 -17 -10 -2 -7 -16 -5
-40 5 -46 19 -122 19 -165 0z"/>
<path d="M4044 1248 c-5 -8 4 -13 39 -22 l27 -6 0 -209 c0 -216 -1 -224 -43
-232 -10 -2 -18 -8 -18 -14 1 -6 49 -11 117 -13 91 -2 115 0 112 10 -3 7 -13
15 -24 17 -43 8 -44 15 -44 226 0 210 2 218 43 226 10 2 19 8 20 14 2 11 -222
14 -229 3z"/>
<path d="M4310 1199 c0 -65 12 -77 26 -27 12 42 46 59 109 56 l50 -3 3 -209
c3 -222 0 -236 -44 -236 -15 0 -24 -6 -24 -15 0 -13 17 -15 118 -13 68 2 117
7 117 13 0 5 -9 11 -20 13 -44 9 -45 15 -45 238 l0 214 44 0 c72 0 104 -16
117 -61 15 -49 29 -41 29 17 0 48 15 57 42 27 9 -10 48 -75 87 -145 67 -122
71 -131 71 -192 0 -69 -14 -96 -51 -96 -10 0 -19 -7 -19 -15 0 -12 19 -15 115
-15 96 0 115 3 115 15 0 8 -9 15 -19 15 -37 0 -51 27 -51 101 l0 69 82 131
c47 76 91 135 105 142 13 5 23 16 23 24 0 10 -19 13 -74 13 -82 0 -102 -11
-59 -32 20 -10 27 -20 25 -37 -2 -23 -102 -201 -112 -201 -12 0 -110 191 -110
214 0 21 5 26 25 26 14 0 25 6 25 13 0 11 -67 14 -350 14 l-350 1 0 -59z"/>
</g>
</svg>
